<svg xmlns="http://www.w3.org/2000/svg" xmlns:xlink="http://www.w3.org/1999/xlink" version="1.1" width="810pt" height="810pt" viewBox="0 0 810 810">
<defs>
<clipPath id="clip_0">
<path transform="matrix(.24,0,0,.24,0,0)" d="M0 0H3375V3375H0Z" fill-rule="evenodd"/>
</clipPath>
<clipPath id="clip_1">
<path transform="matrix(.24,0,0,.24,0,0)" d="M0 0H3375V3375H0Z" fill-rule="evenodd"/>
</clipPath>
<clipPath id="clip_2">
<path transform="matrix(.24,0,0,.24,0,0)" d="M0 0H3375V3406.25H0Z"/>
</clipPath>
<clipPath id="clip_3">
<path transform="matrix(.24,0,0,.24,0,0)" d="M0 0H3375V3375H0Z"/>
</clipPath>
<clipPath id="clip_4">
<path transform="matrix(.24,0,0,.24,0,0)" d="M0 0H3375V3375H0Z"/>
</clipPath>
<clipPath id="clip_5">
<path transform="matrix(.24,0,0,.24,0,0)" d="M42.178609 61.488199H3325.9312V3345.2408H42.178609Z"/>
</clipPath>
<clipPath id="clip_6">
<path transform="matrix(.24,0,0,.24,0,0)" d="M1684.0548 61.488199C777.2716 61.488199 42.178609 796.58126 42.178609 1703.3644 42.178609 2610.1478 777.2716 3345.2408 1684.0548 3345.2408 2590.8382 3345.2408 3325.9312 2610.1478 3325.9312 1703.3644 3325.9312 796.58126 2590.8382 61.488199 1684.0548 61.488199Z"/>
</clipPath>
<clipPath id="clip_7">
<path transform="matrix(.24,0,0,.24,0,0)" d="M0 0H3375V3406.25H0Z"/>
</clipPath>
<clipPath id="clip_8">
<path transform="matrix(.24,0,0,.24,0,0)" d="M0 0H3375V3375H0Z"/>
</clipPath>
<clipPath id="clip_9">
<path transform="matrix(.24,0,0,.24,0,0)" d="M0 0H3375V3375H0Z"/>
</clipPath>
<clipPath id="clip_10">
<path transform="matrix(.24,0,0,.24,0,0)" d="M438.9394 487.73985H2870.1888V2918.989H438.9394Z"/>
</clipPath>
<clipPath id="clip_11">
<path transform="matrix(.24,0,0,.24,0,0)" d="M1654.564 487.73985C983.19308 487.73985 438.9394 1031.9935 438.9394 1703.3645 438.9394 2374.7354 983.19308 2918.989 1654.564 2918.989 2325.9349 2918.989 2870.1888 2374.7354 2870.1888 1703.3645 2870.1888 1031.9935 2325.9349 487.73985 1654.564 487.73985Z"/>
</clipPath>
<clipPath id="clip_12">
<path transform="matrix(.24,0,0,.24,0,0)" d="M0 0H3375V3406.25H0Z"/>
</clipPath>
<clipPath id="clip_13">
<path transform="matrix(.24,0,0,.24,0,0)" d="M0 0H3375V3375H0Z"/>
</clipPath>
<clipPath id="clip_14">
<path transform="matrix(.24,0,0,.24,0,0)" d="M0 0H3375V3375H0Z"/>
</clipPath>
<clipPath id="clip_15">
<path transform="matrix(.24,0,0,.24,0,0)" d="M836.47207 885.2726H2472.6558V2521.4564H836.47207Z"/>
</clipPath>
<clipPath id="clip_16">
<path transform="matrix(.24,0,0,.24,0,0)" d="M1654.564 885.2726C1202.7443 885.2726 836.47207 1251.5448 836.47207 1703.3645 836.47207 2155.184 1202.7443 2521.4564 1654.564 2521.4564 2106.3836 2521.4564 2472.6558 2155.184 2472.6558 1703.3645 2472.6558 1251.5448 2106.3836 885.2726 1654.564 885.2726Z"/>
</clipPath>
<clipPath id="clip_17">
<path transform="matrix(.24,0,0,.24,0,0)" d="M0 0H3375V3406.25H0Z"/>
</clipPath>
<clipPath id="clip_18">
<path transform="matrix(.24,0,0,.24,0,0)" d="M0 0H3375V3375H0Z"/>
</clipPath>
<clipPath id="clip_19">
<path transform="matrix(.24,0,0,.24,0,0)" d="M0 0H3375V3375H0Z"/>
</clipPath>
<clipPath id="clip_20">
<path transform="matrix(.24,0,0,.24,0,0)" d="M1140.5955 1189.3959H2168.5325V2217.333H1140.5955Z"/>
</clipPath>
<clipPath id="clip_21">
<path transform="matrix(.24,0,0,.24,0,0)" d="M1654.564 1189.3959C1370.707 1189.3959 1140.5955 1419.5075 1140.5955 1703.3644 1140.5955 1987.2213 1370.707 2217.333 1654.564 2217.333 1938.4209 2217.333 2168.5325 1987.2213 2168.5325 1703.3644 2168.5325 1419.5075 1938.4209 1189.3959 1654.564 1189.3959Z"/>
</clipPath>
<clipPath id="clip_22">
<path transform="matrix(.24,0,0,.24,0,0)" d="M0 0H3375V3375H0Z" fill-rule="evenodd"/>
</clipPath>
<path id="font_23_36" d="M.37548829-.010253906C.31559245-.010253906 .2627767 .0034179688 .21704102 .030761719 .17130535 .05810547 .13557942 .09928385 .10986328 .15429688 .08414713 .20930989 .07128906 .27685548 .07128906 .3569336 .07128906 .43701173 .08504232 .5045573 .11254883 .5595703 .14005535 .6145833 .17822266 .6557617 .22705078 .68310549 .2758789 .7104492 .332194 .7241211 .3959961 .7241211 .46435548 .7241211 .5205078 .7118327 .5644531 .68725588 .60839846 .662679 .63948568 .62597659 .65771487 .57714846L.60302737 .5449219H.5908203C.5722656 .58203127 .5472005 .6086426 .515625 .62475588 .48404948 .64086917 .4441732 .6489258 .3959961 .6489258 .23942058 .6489258 .16113281 .55159506 .16113281 .3569336 .16113281 .25569663 .18082683 .18180339 .22021485 .1352539 .25960288 .08870443 .31477867 .06542969 .3857422 .06542969 .45084635 .06542969 .4995931 .08024088 .5319824 .10986328 .56437179 .13948567 .5805664 .18619792 .5805664 .25V.31298829H.3774414V.3803711H.6621094V0H.58447268V.095703128L.57421877 .09814453C.55533859 .061360677 .52905276 .03409831 .49536134 .016357422 .46166993-.0013834635 .42171226-.010253906 .37548829-.010253906Z"/>
<path id="font_23_172" d="M.13378906 .6425781C.11686198 .6425781 .10310873 .64786788 .0925293 .65844729 .08194987 .6690267 .076660159 .6824544 .076660159 .69873049 .076660159 .71500656 .08194987 .72843429 .0925293 .7390137 .10310873 .7495931 .11686198 .7548828 .13378906 .7548828 .15071614 .7548828 .1644694 .7495931 .17504883 .7390137 .18562825 .72843429 .19091797 .71500656 .19091797 .69873049 .19091797 .6824544 .18562825 .6690267 .17504883 .65844729 .1644694 .64786788 .15071614 .6425781 .13378906 .6425781M.09375 0V.5385742H.17333985V0H.09375Z"/>
<path id="font_23_217" d="M.09375 0V.5385742H.1694336V.45410157L.1796875 .45166017C.20475261 .5128581 .25195313 .54345706 .32128907 .54345706 .3580729 .54345706 .38557945 .5367839 .4038086 .5234375L.38330079 .4560547 .37353517 .45410157C.35335288 .46419273 .33121745 .46923829 .3071289 .46923829 .26416017 .46923829 .2311198 .453125 .20800781 .42089845 .18489583 .38867188 .17333985 .33642579 .17333985 .26416017V0H.09375Z"/>
<path id="font_23_130" d="M.22216797-.010253906C.16910808-.010253906 .12768555 .0035807293 .09790039 .03125 .068115238 .05891927 .053222658 .098470058 .053222658 .14990235 .053222658 .18180339 .059814454 .20874024 .07299805 .23071289 .08618164 .25268556 .10660807 .2705892 .13427735 .28442384 .16194661 .29825846 .19807942 .30891929 .24267578 .31640626 .28173829 .32291667 .31144206 .33024089 .3317871 .3383789 .35213218 .34651695 .36580406 .3556315 .37280274 .36572267 .37980143 .3758138 .38330079 .38850913 .38330079 .4038086 .38330079 .42822267 .3749186 .4469401 .3581543 .45996095 .34138999 .47298179 .31445313 .4794922 .27734376 .4794922 .24251302 .4794922 .21264649 .47273765 .18774414 .45922853 .1628418 .4457194 .13997396 .4256185 .119140628 .39892579H.109375L.0703125 .45410157C.09309896 .4830729 .12207031 .5061035 .15722656 .52319338 .19238281 .5402832 .23242188 .5488281 .27734376 .5488281 .3408203 .5488281 .38761393 .5349121 .4177246 .5070801 .4478353 .47924806 .46289063 .44075523 .46289063 .39160157V.10595703C.46289063 .07600912 .47558595 .061035158 .50097659 .061035158 .5094401 .061035158 .5175781 .0625 .5253906 .06542969L.53222659 .06347656 .5415039 .008300781C.53564456 .0043945314 .5279134 .0013834635 .51831057-.0007324219 .5087077-.0028483074 .4988607-.00390625 .48876954-.00390625 .45914714-.00390625 .43676759 .0026041668 .42163087 .015625 .40649415 .028645834 .3968099 .047851564 .39257813 .07324219L.38232423 .07421875C.36702476 .045898439 .34635417 .024739584 .3203125 .0107421879 .29427085-.0032552083 .261556-.010253906 .22216797-.010253906M.2397461 .053222658C.269694 .053222658 .2956543 .060139974 .31762696 .07397461 .3395996 .08780924 .3564453 .10725912 .36816407 .13232422 .3798828 .15738933 .3857422 .18636067 .3857422 .21923828V.28759767L.37646485 .28955079C.36442057 .28108726 .34977214 .27400718 .33251954 .26831056 .31526695 .26261393 .29117839 .25748698 .2602539 .2529297 .2290039 .24869792 .20418294 .2421875 .18579102 .23339844 .1673991 .22460938 .15429688 .21346028 .14648438 .19995117 .13867188 .18644206 .13476563 .16975911 .13476563 .14990235 .13476563 .11832682 .14404297 .094319667 .16259766 .07788086 .18115235 .06144206 .20686849 .053222658 .2397461 .053222658Z"/>
<path id="font_23_163" d="M.12011719 0V.4736328H.026367188V.5390625H.12011719C.11425781 .5625 .111328128 .58479818 .111328128 .60595706 .111328128 .6407878 .11873373 .670166 .13354492 .6940918 .14835613 .7180176 .16894531 .73583987 .1953125 .7475586 .22167969 .75927737 .25211589 .7651367 .2866211 .7651367 .34033204 .7651367 .3815104 .75358077 .41015626 .73046877L.37939454 .6743164 .36914063 .6723633C.34798179 .68929037 .32047526 .6977539 .2866211 .6977539 .25504557 .6977539 .23120117 .6896159 .21508789 .67333987 .19897461 .6570638 .19091797 .63395187 .19091797 .6040039 .19091797 .5854492 .19384766 .56380209 .19970703 .5390625H.37109376V.4736328H.19970703V0H.12011719Z"/>
<path id="font_23_86" d="M.107910159 0V.7138672H.3671875C.41503907 .7138672 .45524089 .7059733 .48779298 .69018557 .52034506 .67439779 .5447591 .6520996 .56103518 .623291 .5773112 .5944824 .5854492 .5603841 .5854492 .5209961 .5854492 .47672526 .57438156 .44018556 .5522461 .41137696 .53011068 .38256837 .49560548 .3610026 .44873048 .3466797V.33642579C.47184245 .3273112 .49072267 .31298829 .5053711 .29345704 .52001956 .27392579 .5335286 .24479167 .54589846 .20605469L.6118164 0H.5253906L.45410157 .21826172C.44563804 .24397786 .4358724 .26416017 .4248047 .2788086 .41373698 .29345704 .3997396 .30403648 .3828125 .31054688 .3658854 .31705729 .34440104 .3203125 .31835938 .3203125H.19189453V0H.107910159M.36523438 .39160157C.40983073 .39160157 .44303385 .40193687 .46484376 .42260743 .48665367 .44327799 .4975586 .47477214 .4975586 .51708987 .4975586 .55940756 .48665367 .5909017 .46484376 .61157229 .44303385 .63224288 .40983073 .6425781 .36523438 .6425781H.19189453V.39160157H.36523438Z"/>
<path id="font_23_153" d="M.5131836 .25097657H.1430664C.14534505 .18554688 .16105144 .13753255 .19018555 .106933597 .21931966 .07633463 .25927735 .061035158 .3100586 .061035158 .34847007 .061035158 .37939454 .067871097 .40283204 .08154297 .42626954 .095214847 .44466148 .11669922 .4580078 .1459961H.46826173L.52001956 .115234378C.50439456 .076171878 .4794108 .045491537 .44506837 .02319336 .41072593 .0008951823 .36572267-.010253906 .3100586-.010253906 .25797526-.010253906 .21321614 0 .17578125 .020507813 .13834636 .041015626 .10953776 .07210287 .08935547 .11376953 .06917318 .1554362 .05908203 .20719402 .05908203 .26904298 .05908203 .33024089 .069742839 .38183595 .09106445 .42382813 .11238607 .4658203 .14152019 .4971517 .1784668 .51782229 .2154134 .53849288 .25764976 .5488281 .30517579 .5488281 .3741862 .5488281 .4280599 .52937826 .46679688 .49047853 .5055339 .45157878 .5250651 .39388023 .5253906 .3173828 .5253906 .2874349 .52473959 .2672526 .5234375 .25683595L.5131836 .25097657M.44677735 .3173828C.44547526 .37467448 .43277995 .41634117 .4086914 .4423828 .38460288 .46842448 .35009767 .4814453 .30517579 .4814453 .25797526 .4814453 .22094727 .4683431 .1940918 .44213868 .16723633 .41593424 .1508789 .37434898 .14501953 .3173828H.44677735Z"/>
<path id="font_23_214" d="M.09375-.21826172V.5385742H.17333985V.4580078L.18359375 .4560547C.22363281 .5179036 .2823893 .5488281 .35986329 .5488281 .40478517 .5488281 .4440104 .5385742 .47753907 .5180664 .5110677 .4975586 .5371094 .46638999 .55566409 .42456056 .57421877 .3827311 .5834961 .33089195 .5834961 .26904298 .5834961 .20751953 .57373049 .15592449 .5541992 .11425781 .53466799 .07259115 .5076497 .041422529 .47314454 .020751954 .4386393 .00008138021 .39892579-.010253906 .3540039-.010253906 .31754557-.010253906 .28515626-.00390625 .25683595 .0087890629 .22851563 .021484375 .20410156 .042317708 .18359375 .07128906L.17333985 .06933594V-.21826172H.09375M.33642579 .061035158C.44547526 .061035158 .5 .1303711 .5 .26904298 .5 .40804038 .44547526 .47753907 .33642579 .47753907 .30452476 .47753907 .2763672 .47021485 .25195313 .4555664 .22753906 .44091798 .20833333 .41805015 .19433594 .3869629 .18033855 .35587565 .17333985 .316569 .17333985 .26904298 .17333985 .22184246 .18033855 .18269857 .19433594 .15161133 .20833333 .120524089 .22753906 .09765625 .25195313 .08300781 .2763672 .068359378 .30452476 .061035158 .33642579 .061035158Z"/>
<path id="font_23_203" d="M.30908204-.010253906C.25830079-.010253906 .21411133 .00048828127 .17651367 .021972657 .13891602 .04345703 .109944667 .07511393 .08959961 .11694336 .069254558 .15877278 .05908203 .20947266 .05908203 .26904298 .05908203 .32861329 .069254558 .37939454 .08959961 .42138673 .109944667 .4633789 .13891602 .4951172 .17651367 .51660159 .21411133 .53808596 .25830079 .5488281 .30908204 .5488281 .35986329 .5488281 .40405274 .53808596 .4416504 .51660159 .47924806 .4951172 .5082194 .4633789 .52856448 .42138673 .5489095 .37939454 .55908206 .32861329 .55908206 .26904298 .55908206 .20947266 .5489095 .15877278 .52856448 .11694336 .5082194 .07511393 .47924806 .04345703 .4416504 .021972657 .40405274 .00048828127 .35986329-.010253906 .30908204-.010253906M.30908204 .061035158C.36279298 .061035158 .40388999 .07796224 .43237306 .111816409 .4608561 .14567058 .47509767 .19807942 .47509767 .26904298 .47509767 .34033204 .4608561 .39290367 .43237306 .4267578 .40388999 .46061198 .36279298 .47753907 .30908204 .47753907 .2553711 .47753907 .2141927 .4605306 .18554688 .42651368 .15690105 .39249674 .14257813 .3400065 .14257813 .26904298 .14257813 .19807942 .15690105 .14567058 .18554688 .111816409 .2141927 .07796224 .2553711 .061035158 .30908204 .061035158Z"/>
<path id="font_23_221" d="M.24560547-.010253906C.2117513-.010253906 .18041992-.0057779948 .15161133 .0031738282 .122802738 .012125651 .098470058 .024414063 .07861328 .040039064 .05875651 .055664064 .044759115 .07324219 .036621095 .09277344L.083496097 .14160156H.09375C.111328128 .11490885 .13248699 .094807948 .15722656 .08129883 .18196614 .06778971 .21142578 .061035158 .24560547 .061035158 .285319 .061035158 .31551109 .06876627 .33618165 .084228519 .3568522 .09969076 .3671875 .12125651 .3671875 .14892578 .3671875 .17008464 .36092124 .18758138 .34838868 .20141602 .3358561 .21525066 .31559245 .22558594 .28759767 .23242188L.19677735 .2548828C.14827474 .26660157 .11287435 .28515626 .09057617 .31054688 .06827799 .3359375 .057128908 .36735026 .057128908 .40478517 .057128908 .43408204 .06461588 .45955406 .079589847 .48120118 .094563808 .5028483 .116129558 .51953127 .14428711 .53125 .17244466 .54296877 .20589192 .5488281 .2446289 .5488281 .29410807 .5488281 .3330892 .5419108 .36157228 .5280762 .39005534 .5142415 .41227214 .49495445 .42822267 .47021485L.38330079 .42626954H.37353517C.35628257 .4461263 .33748374 .46044923 .31713868 .46923829 .2967936 .47802735 .2726237 .48242188 .2446289 .48242188 .20914714 .48242188 .18196614 .47607423 .16308594 .4633789 .14420574 .4506836 .13476563 .43229167 .13476563 .40820313 .13476563 .38639323 .1414388 .3688151 .15478516 .35546876 .16813152 .3421224 .19140625 .33138023 .22460938 .3232422L.31396485 .3017578C.36083985 .2906901 .394694 .2722982 .41552735 .24658203 .4363607 .22086589 .44677735 .18863933 .44677735 .14990235 .44677735 .11832682 .43929038 .09049479 .4243164 .06640625 .40934245 .042317708 .38671876 .02351888 .3564453 .010009766 .32617188-.0034993489 .28922526-.010253906 .24560547-.010253906Z"/>
<path id="font_23_228" d="M.3642578 .08544922 .38964845 .028320313C.37695313 .015625 .36027018 .0060221354 .3395996-.00048828127 .31892906-.0069986979 .29654948-.010253906 .27246095-.010253906 .16959636-.010253906 .11816406 .041829427 .11816406 .1459961V.4736328H.024414063V.5390625H.11816406V.65283206L.1977539 .6660156V.5390625H.37109376V.4736328H.1977539V.1538086C.1977539 .09195963 .22460938 .061035158 .2783203 .061035158 .3076172 .061035158 .33284507 .06917318 .3540039 .08544922H.3642578Z"/>
<path id="font_23_90" d="M.31201173-.010253906C.26708985-.010253906 .22680664-.0041503908 .19116211 .008056641 .15551758 .020263672 .1258138 .036295576 .10205078 .056152345 .07828776 .07600912 .060546876 .09781901 .048828126 .12158203L.09472656 .1772461H.106933597C.15120442 .10270182 .2195638 .06542969 .31201173 .06542969 .36572267 .06542969 .40568034 .076660159 .43188478 .099121097 .4580892 .12158203 .4711914 .15283203 .4711914 .1928711 .4711914 .2163086 .46687828 .23616536 .45825196 .2524414 .44962565 .26871745 .43538413 .28263346 .41552735 .29418946 .39567057 .30574546 .36865235 .31575523 .33447267 .32421876L.25097657 .34472657C.18880208 .35970054 .14298503 .38354493 .11352539 .41625978 .08406576 .4489746 .06933594 .49039714 .06933594 .54052737 .06933594 .5760091 .07845052 .607666 .09667969 .63549807 .11490885 .6633301 .14160156 .6850586 .17675781 .7006836 .21191406 .7163086 .25390626 .7241211 .30273438 .7241211 .3564453 .7241211 .40177409 .71655276 .4387207 .701416 .47566734 .6862793 .5052083 .6635742 .52734377 .6333008L.48632813 .578125H.4741211C.45361329 .6031901 .42936198 .62158206 .4013672 .6333008 .3733724 .64501956 .34049479 .6508789 .30273438 .6508789 .25325523 .6508789 .21590169 .64127609 .19067383 .6220703 .16544597 .60286459 .15283203 .57633468 .15283203 .54248049 .15283203 .5102539 .16210938 .48461915 .18066406 .46557618 .19921875 .4465332 .23046875 .43180339 .27441407 .42138673L.35986329 .4008789C.42919923 .38460288 .4794108 .35961915 .51049807 .32592774 .54158529 .29223634 .5571289 .2491862 .5571289 .19677735 .5571289 .15641277 .5480957 .12068685 .5300293 .08959961 .5119629 .05851237 .48453776 .03409831 .4477539 .016357422 .41097007-.0013834635 .36572267-.010253906 .31201173-.010253906Z"/>
<path id="font_23_244" d="M.3408203 0H.23144531L.026367188 .5385742H.11230469L.28173829 .09082031H.29296876L.4609375 .5385742H.5449219L.3408203 0Z"/>
<path id="font_23_143" d="M.30908204-.010253906C.261556-.010253906 .21891277 .00056966146 .18115235 .022216797 .14339192 .043863935 .11360677 .07576498 .091796878 .11791992 .06998698 .16007488 .05908203 .21044922 .05908203 .26904298 .05908203 .32796226 .06998698 .37849937 .091796878 .4206543 .11360677 .46280924 .14339192 .4947103 .18115235 .5163574 .21891277 .5380046 .261556 .5488281 .30908204 .5488281 .3660482 .5488281 .41137696 .53808596 .44506837 .51660159 .47875978 .4951172 .50309249 .46647135 .5180664 .43066407L.4638672 .39160157H.45410157C.43945313 .42122398 .4206543 .44295249 .39770509 .4567871 .37475587 .47062174 .34521485 .47753907 .30908204 .47753907 .2758789 .47753907 .2467448 .46972657 .22167969 .45410157 .19661458 .43847657 .17716472 .41503907 .16333008 .38378907 .14949544 .35253907 .14257813 .31429038 .14257813 .26904298 .14257813 .2241211 .14957683 .18611653 .16357422 .1550293 .17757161 .123942058 .19702149 .100504558 .22192383 .0847168 .24682617 .06892904 .2758789 .061035158 .30908204 .061035158 .34651695 .061035158 .3775228 .069498699 .4020996 .08642578 .42667643 .10335287 .44596354 .13004558 .45996095 .1665039H.47021485L.52246096 .13574219C.50846359 .09049479 .48347984 .05485026 .44750978 .028808594 .4115397 .002766927 .36539714-.010253906 .30908204-.010253906Z"/>
<path id="font_23_2" d="M.6425781 0H.5527344L.4868164 .19580078H.18261719L.11621094 0H.028320313L.27734376 .7138672H.3935547L.6425781 0M.32861329 .6274414 .20605469 .26611329H.46289063L.3408203 .6274414H.32861329Z"/>
<path id="font_23_83" d="M.36328126 .7138672C.4124349 .7138672 .45458985 .7050781 .4897461 .6875 .52490237 .6699219 .55167648 .6447754 .57006838 .61206057 .58846029 .5793457 .59765627 .54085287 .59765627 .49658204 .59765627 .4523112 .58846029 .41389976 .57006838 .38134767 .55167648 .34879557 .52490237 .32364909 .4897461 .3059082 .45458985 .28816734 .4124349 .27929688 .36328126 .27929688H.19189453V0H.107910159V.7138672H.36328126M.36083985 .35107423C.4601237 .35107423 .5097656 .3995768 .5097656 .49658204 .5097656 .5939128 .4601237 .6425781 .36083985 .6425781H.19189453V.35107423H.36083985Z"/>
<path id="font_23_44" d="M.19189453 0H.107910159V.7138672H.19189453V0Z"/>
<path id="font_23_25" d="M.19189453 .33642579V.06933594H.55566409V0H.107910159V.7138672H.54785159V.64453127H.19189453V.40576173H.5058594V.33642579H.19189453Z"/>
<path id="font_23_197" d="M.09375 0V.5385742H.1694336V.45410157L.1796875 .45166017C.19759114 .4832357 .22045899 .5073242 .24829102 .5239258 .27612306 .54052737 .3100586 .5488281 .35009767 .5488281 .4148763 .5488281 .46183268 .5323079 .4909668 .49926759 .5201009 .4662272 .53466799 .4153646 .53466799 .3466797V0H.45507813V.34472657C.45507813 .37727867 .45092774 .4034017 .44262696 .4230957 .43432618 .4427897 .4214681 .45711265 .40405274 .46606446 .38663737 .47501628 .36376954 .4794922 .33544923 .4794922 .28694663 .4794922 .24780274 .4634603 .21801758 .43139649 .18823242 .39933268 .17333985 .34765626 .17333985 .2763672V0H.09375Z"/>
</defs>
<g clip-path="url(#clip_0)">
<path transform="matrix(.75,0,0,.75,0,0)" d="M0 0H1080V1080H0Z" fill="#ffffff"/>
</g>
<g clip-path="url(#clip_1)">
<path transform="matrix(.75,0,0,.75,0,0)" d="M0 0H1080V1080H0Z" fill="#ffffff"/>
</g>
<g clip-path="url(#clip_2)">
<g clip-path="url(#clip_3)">
<g clip-path="url(#clip_4)">
<g clip-path="url(#clip_5)">
<g clip-path="url(#clip_6)">
<path transform="matrix(3.078518,0,0,3.078518,10.122866,14.757167)" d="M0 0H256V256H0Z" fill="#ff914d"/>
</g>
</g>
</g>
</g>
</g>
<g clip-path="url(#clip_7)">
<g clip-path="url(#clip_8)">
<g clip-path="url(#clip_9)">
<g clip-path="url(#clip_10)">
<g clip-path="url(#clip_11)">
<path transform="matrix(2.2792962,0,0,2.2792962,105.34545,117.057559)" d="M0 0H256V256H0Z" fill="#ffde59"/>
</g>
</g>
</g>
</g>
</g>
<g clip-path="url(#clip_12)">
<g clip-path="url(#clip_13)">
<g clip-path="url(#clip_14)">
<g clip-path="url(#clip_15)">
<g clip-path="url(#clip_16)">
<path transform="matrix(1.5339222,0,0,1.5339222,200.75328,212.46541)" d="M0 0H256V256H0Z" fill="#6781a4"/>
</g>
</g>
</g>
</g>
</g>
<g clip-path="url(#clip_17)">
<g clip-path="url(#clip_18)">
<g clip-path="url(#clip_19)">
<g clip-path="url(#clip_20)">
<g clip-path="url(#clip_21)">
<path transform="matrix(.96369096,0,0,.96369096,273.7429,285.45503)" d="M0 0H256V256H0Z" fill="#c1ff72"/>
</g>
</g>
</g>
</g>
</g>
<g clip-path="url(#clip_22)">
<use data-text="G" xlink:href="#font_23_36" transform="matrix(22.822709,-26.613837,-26.613837,-22.822709,283.6605,325.2878)"/>
<use data-text="i" xlink:href="#font_23_172" transform="matrix(25.688513,-23.85943,-23.85943,-25.688513,299.99073,306.83927)"/>
<use data-text="r" xlink:href="#font_23_217" transform="matrix(27.442875,-21.818816,-21.818816,-27.442875,306.08256,301.00108)"/>
<use data-text="a" xlink:href="#font_23_130" transform="matrix(29.660563,-18.692866,-18.692866,-29.660563,316.34745,292.5764)"/>
<use data-text="f" xlink:href="#font_23_163" transform="matrix(31.467997,-15.457601,-15.457601,-31.467997,331.8376,282.92283)"/>
<use data-text="R" xlink:href="#font_23_86" transform="matrix(33.062437,-11.663953,-11.663953,-33.062437,342.5032,277.27076)"/>
<use data-text="e" xlink:href="#font_23_153" transform="matrix(34.358537,-6.975897,-6.975897,-34.358537,362.7922,270.10237)"/>
<use data-text="p" xlink:href="#font_23_214" transform="matrix(34.988779,-2.226545,-2.226545,-34.988779,380.8913,266.23036)"/>
<use data-text="o" xlink:href="#font_23_203" transform="matrix(34.95255,2.7370527,2.7370527,-34.95255,401.68406,264.81663)"/>
<use data-text="s" xlink:href="#font_23_221" transform="matrix(34.33538,7.0889928,7.0889928,-34.33538,421.78315,266.42756)"/>
<use data-text="i" xlink:href="#font_23_172" transform="matrix(33.599626,10.011863,10.011863,-33.599626,437.8319,269.87428)"/>
<use data-text="t" xlink:href="#font_23_228" transform="matrix(32.74099,12.53793,12.53793,-32.74099,445.9635,272.1608)"/>
<use data-text="o" xlink:href="#font_23_203" transform="matrix(31.076704,16.229933,16.229933,-31.076704,458.21406,276.5364)"/>
<use data-text="r" xlink:href="#font_23_217" transform="matrix(28.984778,19.724476,19.724476,-28.984778,476.1202,286.02925)"/>
<use data-text="i" xlink:href="#font_23_172" transform="matrix(27.386507,21.889529,21.889529,-27.386507,487.369,293.76646)"/>
<use data-text="e" xlink:href="#font_23_153" transform="matrix(25.19744,24.377474,24.377474,-25.19744,493.99519,298.6667)"/>
<use data-text="s" xlink:href="#font_23_221" transform="matrix(22.083933,27.229987,27.229987,-22.083933,507.42958,311.64836)"/>
<use data-text="G" xlink:href="#font_23_36" transform="matrix(32.0211,-14.27661,-14.27661,-32.0211,298.01643,199.80178)"/>
<use data-text="i" xlink:href="#font_23_172" transform="matrix(32.993394,-11.857824,-11.857824,-32.993394,321.06178,189.82498)"/>
<use data-text="r" xlink:href="#font_23_217" transform="matrix(33.54825,-10.182692,-10.182692,-33.54825,329.2731,186.78964)"/>
<use data-text="a" xlink:href="#font_23_130" transform="matrix(34.19161,-7.7528159,-7.7528159,-34.19161,342.36833,182.68999)"/>
<use data-text="f" xlink:href="#font_23_163" transform="matrix(34.64657,-5.3653819,-5.3653819,-34.64657,360.61228,178.63065)"/>
<use data-text="S" xlink:href="#font_23_90" transform="matrix(34.94665,-2.811355,-2.811355,-34.94665,373.01103,176.5282)"/>
<use data-text="e" xlink:href="#font_23_153" transform="matrix(35.058664,.24977216,.24977216,-35.058664,393.34065,174.8753)"/>
<use data-text="r" xlink:href="#font_23_217" transform="matrix(34.947156,2.8050674,2.8050674,-34.947156,412.5856,175.08078)"/>
<use data-text="v" xlink:href="#font_23_244" transform="matrix(34.651,5.336707,5.336707,-34.651,426.26219,176.047)"/>
<use data-text="i" xlink:href="#font_23_172" transform="matrix(34.255674,7.464664,7.464664,-34.255674,445.27436,179.11908)"/>
<use data-text="c" xlink:href="#font_23_143" transform="matrix(33.74078,9.525332,9.525332,-33.74078,453.7481,180.78627)"/>
<use data-text="e" xlink:href="#font_23_153" transform="matrix(32.83217,12.297187,12.297187,-32.83217,471.5306,185.74811)"/>
<use data-text="s" xlink:href="#font_23_221" transform="matrix(31.75908,14.850348,14.850348,-31.75908,489.4837,192.48593)"/>
<use data-text="G" xlink:href="#font_23_36" transform="matrix(34.605848,-5.6220567,-5.6220567,-34.605848,334.33345,87.32143)"/>
<use data-text="i" xlink:href="#font_23_172" transform="matrix(34.84388,-3.88286,-3.88286,-34.84388,359.4428,83.436389)"/>
<use data-text="r" xlink:href="#font_23_217" transform="matrix(34.955438,-2.6999346,-2.6999346,-34.955438,368.33439,82.3945)"/>
<use data-text="a" xlink:href="#font_23_130" transform="matrix(35.04501,-1.0097298,-1.0097298,-35.04501,382.28797,81.24245)"/>
<use data-text="f" xlink:href="#font_23_163" transform="matrix(35.05395,.6267817,.6267817,-35.05395,401.24565,80.753498)"/>
<use data-text="A" xlink:href="#font_23_2" transform="matrix(34.973184,2.4593745,2.4593745,-34.973184,414.07099,80.83443)"/>
<use data-text="P" xlink:href="#font_23_83" transform="matrix(34.73684,4.7459528,4.7459528,-34.73684,436.74507,82.413448)"/>
<use data-text="I" xlink:href="#font_23_44" transform="matrix(34.47428,6.3793518,6.3793518,-34.47428,458.76509,85.55554)"/>
<use data-text="G" xlink:href="#font_23_36" transform="matrix(35.059556,0,0,-35.059556,291.61357,414.10688)"/>
<use data-text="i" xlink:href="#font_23_172" transform="matrix(35.059556,0,0,-35.059556,317.63243,414.10688)"/>
<use data-text="r" xlink:href="#font_23_217" transform="matrix(35.059556,0,0,-35.059556,326.99577,414.10688)"/>
<use data-text="a" xlink:href="#font_23_130" transform="matrix(35.059556,0,0,-35.059556,341.58003,414.10688)"/>
<use data-text="f" xlink:href="#font_23_163" transform="matrix(35.059556,0,0,-35.059556,361.1113,414.10688)"/>
<use data-text="E" xlink:href="#font_23_25" transform="matrix(35.059556,0,0,-35.059556,374.56575,414.10688)"/>
<use data-text="n" xlink:href="#font_23_197" transform="matrix(35.059556,0,0,-35.059556,395.70606,414.10688)"/>
<use data-text="t" xlink:href="#font_23_228" transform="matrix(35.059556,0,0,-35.059556,417.4455,414.10688)"/>
<use data-text="i" xlink:href="#font_23_172" transform="matrix(35.059556,0,0,-35.059556,431.82435,414.10688)"/>
<use data-text="t" xlink:href="#font_23_228" transform="matrix(35.059556,0,0,-35.059556,441.1877,414.10688)"/>
<use data-text="i" xlink:href="#font_23_172" transform="matrix(35.059556,0,0,-35.059556,455.56654,414.10688)"/>
<use data-text="e" xlink:href="#font_23_153" transform="matrix(35.059556,0,0,-35.059556,464.92994,414.10688)"/>
<use data-text="s" xlink:href="#font_23_221" transform="matrix(35.059556,0,0,-35.059556,485.06025,414.10688)"/>
</g>
</svg>
