<svg xmlns="http://www.w3.org/2000/svg" width="500" height="380.266" viewBox="0 0 500 380.266">
  <path id="Exclusion_1" data-name="Exclusion 1" d="M440,380.266H60a83.434,83.434,0,0,1-26.25-3.753,52.041,52.041,0,0,1-10.313-4.691,43.1,43.1,0,0,1-15-15.01,52.112,52.112,0,0,1-4.687-10.32A83.6,83.6,0,0,1,0,320.224V61.064a104.846,104.846,0,0,1,.937-14.41A72.511,72.511,0,0,1,3.75,34.2,53.2,53.2,0,0,1,8.437,23.7,44.1,44.1,0,0,1,15,15.138,43.6,43.6,0,0,1,23.438,8.5,51.572,51.572,0,0,1,33.75,3.769,69.393,69.393,0,0,1,45.938.94,99.662,99.662,0,0,1,60,0H210l60,50.886.314,0c13.418-.087,132.18-.848,169.686-.848a83.433,83.433,0,0,1,26.25,3.753,52.039,52.039,0,0,1,10.312,4.691,43.106,43.106,0,0,1,15,15.01,52.1,52.1,0,0,1,4.688,10.32A83.6,83.6,0,0,1,500,110.077V320.224a83.6,83.6,0,0,1-3.75,26.268,52.1,52.1,0,0,1-4.688,10.32,43.1,43.1,0,0,1-15,15.01,52.038,52.038,0,0,1-10.312,4.691A83.433,83.433,0,0,1,440,380.266ZM168.5,190.133a4.736,4.736,0,0,0-5,5v33.022a4.736,4.736,0,0,0,5,5h60v60.042a4.735,4.735,0,0,0,5,5h33a4.735,4.735,0,0,0,5-5V233.163h59.833c3.139,0,5.167-1.964,5.167-5V195.137a4.735,4.735,0,0,0-5-5h-60V130.258c0-3.141-1.963-5.171-5-5.171h-33a4.736,4.736,0,0,0-5,5v60.041Z"/>
</svg>
